# xmcd CD database file
#
# Track frame offsets:
#	150
#	11892
#	26920
#	42040
#	57577
#	71200
#	81931
#	97669
#	107547
#	119781
#	129141
#	143554
#	158684
#	175544
#	188234
#	199469
#	212498
#	226505
#	239900
#	247296
#	259180
#	271154
#	283166
#	290793
#	307818
#
# Disc length: 4234 seconds
#
# Revision: 0
# Processed by: cddbd v1.5.2PL0 Copyright (c) Steve Scherf et al.
# Submitted via: CDex 1.51
#
DISCID=72108819
DTITLE=Frank Sinatra - Deja Vu Definitive Gold [CD 3)
DYEAR=2006
DGENRE=Jazz
TTITLE0=Five Minutes More
TTITLE1=Sunday, Monday Or Always
TTITLE2=I've Got A Crush On You
TTITLE3=Nancy
TTITLE4=I Couldn't Sleep A Wink Last Night
TTITLE5=Speak Low
TTITLE6=None But The Lonely Heart
TTITLE7=Aren't You Glad You're You
TTITLE8=The Way You Look Tonight
TTITLE9=Come Out, Come Out, Wherever You Are
TTITLE10=A Lovely Way To Spend An Evening
TTITLE11=Stormy Weather
TTITLE12=Mighty Lak'a Rose
TTITLE13=Cradle Song
TTITLE14=Come Rain Or Come Shine
TTITLE15=All The Things You Are
TTITLE16=And Then You Kissed Me
TTITLE17=Oh! What It Seemed To Be
TTITLE18=You Brought A New Kind Of Love
TTITLE19=Long Ago And Far Away
TTITLE20=I'll Follow My Secret Heart
TTITLE21=They Say It's Wonderful
TTITLE22=I'll Be Around
TTITLE23=I Only Have Eyes For You
TTITLE24=The Night Is Young And You're So Beautiful
EXTD=YEAR: 2006
EXTT0=
EXTT1=
EXTT2=
EXTT3=
EXTT4=
EXTT5=
EXTT6=
EXTT7=
EXTT8=
EXTT9=
EXTT10=
EXTT11=
EXTT12=
EXTT13=
EXTT14=
EXTT15=
EXTT16=
EXTT17=
EXTT18=
EXTT19=
EXTT20=
EXTT21=
EXTT22=
EXTT23=
EXTT24=
PLAYORDER=
